<?xml version="1.0" encoding="iso-8859-1"?>
<!-- Uploaded to: SVG Repo, www.svgrepo.com, Generator: SVG Repo Mixer Tools -->
<svg fill="#000000" height="800px" width="800px" version="1.1" id="Layer_1" xmlns="http://www.w3.org/2000/svg" xmlns:xlink="http://www.w3.org/1999/xlink" 
	 viewBox="0 0 512 512" xml:space="preserve">
<g>
	<g>
		<path d="M83.478,411.826H16.696C7.475,411.826,0,419.301,0,428.522s7.475,16.696,16.696,16.696h66.783
			c9.22,0,16.696-7.475,16.696-16.696S92.699,411.826,83.478,411.826z"/>
	</g>
</g>
<g>
	<g>
		<path d="M484.174,411.826h-66.783c-9.22,0-16.696,7.475-16.696,16.696s7.475,16.696,16.696,16.696h66.783
			c9.22,0,16.696-7.475,16.696-16.696S493.394,411.826,484.174,411.826z"/>
	</g>
</g>
<g>
	<g>
		<path d="M450.783,478.609H317.217c-9.22,0-16.696,7.475-16.696,16.696S307.997,512,317.217,512h133.565
			c9.22,0,16.696-7.475,16.696-16.696S460.003,478.609,450.783,478.609z"/>
	</g>
</g>
<g>
	<g>
		<path d="M183.652,478.609H83.478c-9.22,0-16.696,7.475-16.696,16.696S74.258,512,83.478,512h100.174
			c9.22,0,16.696-7.475,16.696-16.696S192.873,478.609,183.652,478.609z"/>
	</g>
</g>
<g>
	<g>
		<path d="M350.609,411.826H150.261c-9.22,0-16.696,7.475-16.696,16.696s7.475,16.696,16.696,16.696h200.348
			c9.22,0,16.696-7.475,16.696-16.696S359.829,411.826,350.609,411.826z"/>
	</g>
</g>
<g>
	<g>
		<path d="M294.957,166.957c-9.22,0-16.696,7.475-16.696,16.696v33.391c0,9.22,7.475,16.696,16.696,16.696
			s16.696-7.475,16.696-16.696v-33.391C311.652,174.432,304.177,166.957,294.957,166.957z"/>
	</g>
</g>
<g>
	<g>
		<path d="M217.043,166.957c-9.22,0-16.696,7.475-16.696,16.696v33.391c0,9.22,7.475,16.696,16.696,16.696
			c9.22,0,16.696-7.475,16.696-16.696v-33.391C233.739,174.432,226.264,166.957,217.043,166.957z"/>
	</g>
</g>
<g>
	<g>
		<path d="M495.304,0h-66.783c-9.22,0-16.696,7.475-16.696,16.696v16.696h-50.087c-9.22,0-16.696,7.475-16.696,16.696v16.696
			H166.957V50.087c0-9.22-7.475-16.696-16.696-16.696h-50.087V16.696C100.174,7.475,92.699,0,83.478,0H16.696
			C7.475,0,0,7.475,0,16.696v345.043c0,9.22,7.475,16.696,16.696,16.696c6.076,0,474.04,0,478.609,0
			c9.22,0,16.696-7.475,16.696-16.696V16.696C512,7.475,504.525,0,495.304,0z M123.41,345.043H33.391V33.391h33.391v217.044
			c0,9.22,7.475,16.696,16.696,16.696s16.696-7.475,16.696-16.696V66.671h33.503c0,2.431-0.011,251.312,0.021,252.593
			C128.538,327.058,124.97,335.85,123.41,345.043z M166.957,100.174h33.391V128c0,9.22,7.475,16.696,16.696,16.696
			c9.22,0,16.696-7.475,16.696-16.696v-27.826h44.522v16.696c0,9.22,7.475,16.696,16.696,16.696s16.696-7.475,16.696-16.696v-16.696
			h33.391v193.07c-10.052-3.56-20.679-4.674-31.078-3.253C302.34,269.388,280.339,256,256,256s-46.34,13.388-57.965,33.99
			c-10.385-1.418-21.012-0.311-31.078,3.253V100.174z M157.722,345.043c6.089-17.262,25.625-27.137,43.9-19.799
			c9.267,3.722,19.727-1.484,22.337-11.134c3.938-14.554,17.114-24.72,32.042-24.72s28.104,10.165,32.042,24.72
			c2.608,9.641,13.059,14.857,22.337,11.134c18.187-7.303,37.778,2.444,43.9,19.799H157.722z M388.589,345.043
			c-1.56-9.194-5.015-17.986-10.177-25.779c0.003-0.142,0.021-0.281,0.021-0.424V66.783h33.391v183.652
			c0,9.22,7.475,16.696,16.696,16.696s16.696-7.475,16.696-16.696V33.391h33.391v311.652H388.589z"/>
	</g>
</g>
</svg>