<?xml version="1.0" encoding="iso-8859-1"?>
<!-- Uploaded to: SVG Repo, www.svgrepo.com, Generator: SVG Repo Mixer Tools -->
<!DOCTYPE svg PUBLIC "-//W3C//DTD SVG 1.1//EN" "http://www.w3.org/Graphics/SVG/1.1/DTD/svg11.dtd">
<svg fill="#000000" version="1.1" id="Capa_1" xmlns="http://www.w3.org/2000/svg" xmlns:xlink="http://www.w3.org/1999/xlink" 
	 width="800px" height="800px" viewBox="0 0 83.943 83.944"
	 xml:space="preserve">
<g>
	<g>
		<path d="M0.5,62.378h30.592l-1.414,3.521c-0.063,0.152-0.043,0.33,0.05,0.467c0.094,0.14,0.248,0.222,0.414,0.222h23.87
			c0.006,0,0.013,0,0.021,0c0.274,0,0.5-0.226,0.5-0.5c0-0.115-0.039-0.222-0.104-0.308l-1.367-3.401h30.383
			c0.275,0,0.5-0.226,0.5-0.5c0-0.275-0.225-0.5-0.5-0.5h-2.389V42.084h2.389c0.275,0,0.5-0.225,0.5-0.5c0-0.276-0.225-0.5-0.5-0.5
			H53.207v-2.098h2.07c0.275,0,0.5-0.224,0.5-0.5c0-0.276-0.225-0.5-0.5-0.5h-2.096c-0.256-5.738-4.867-10.35-10.605-10.607v-3.141
			c0.547-0.274,1.127-0.416,1.773-0.416c0.949,0,1.906,0.276,2.92,0.569c1.035,0.299,2.106,0.608,3.197,0.608
			c0.912,0,1.727-0.214,2.489-0.656c0.152-0.089,0.25-0.254,0.25-0.433v-4.858c0-0.179-0.098-0.344-0.25-0.433
			c-0.155-0.089-0.348-0.089-0.5,0c-0.608,0.352-1.262,0.522-1.989,0.522c-0.949,0-1.906-0.276-2.92-0.569
			c-1.035-0.299-2.105-0.608-3.197-0.608c-0.635,0-1.219,0.111-1.773,0.323v-0.431c0-0.276-0.225-0.5-0.5-0.5
			c-0.276,0-0.5,0.224-0.5,0.5v9.523c-5.737,0.257-10.351,4.868-10.606,10.607h-2.024c-0.275,0-0.5,0.224-0.5,0.5
			c0,0.276,0.225,0.5,0.5,0.5h2v2.098H0.5c-0.276,0-0.5,0.224-0.5,0.5c0,0.062,0.015,0.121,0.035,0.178
			C0.014,41.819,0,41.875,0,41.94v19.586c0,0.064,0.015,0.121,0.035,0.176C0.014,61.761,0,61.817,0,61.882
			C0,62.157,0.224,62.378,0.5,62.378z M42.612,19.353c1.344-0.654,2.973-0.308,4.659,0.181c1.037,0.299,2.107,0.608,3.199,0.608
			c0.619,0,1.191-0.099,1.736-0.302v3.771c-1.342,0.654-2.973,0.308-4.658-0.181c-1.035-0.299-2.106-0.608-3.197-0.608
			c-0.621,0-1.194,0.099-1.739,0.302V19.353z M52.207,38.987v2.098h-6.152h-7.533h-6.575v-2.098H52.207z M32.332,61.025V42.437
			h5.688v18.587L32.332,61.025L32.332,61.025z M39.021,61.025V42.437h6.534v18.587L39.021,61.025L39.021,61.025z M31.332,42.437
			v18.587H1V42.437H31.332z M46.555,61.025V42.437h5.267v18.587L46.555,61.025L46.555,61.025z M52.821,42.437h27.233v18.587H52.821
			V42.437z M30.882,65.584l1.288-3.206h6.351h7.534h5.929l1.288,3.206H30.882z M42.076,28.354c5.418,0,9.844,4.278,10.105,9.632
			H31.97C32.234,32.633,36.659,28.354,42.076,28.354z"/>
		<path d="M56.053,52.232h6.135c0.275,0,0.5-0.225,0.5-0.5v-6.135c0-0.274-0.225-0.5-0.5-0.5h-6.135c-0.274,0-0.5,0.226-0.5,0.5
			v6.135C55.553,52.007,55.776,52.232,56.053,52.232z M56.553,46.097h5.135v5.135h-5.135V46.097z"/>
		<path d="M63.967,52.232H70.1c0.273,0,0.5-0.225,0.5-0.5v-6.135c0-0.274-0.227-0.5-0.5-0.5h-6.133c-0.276,0-0.5,0.226-0.5,0.5
			v6.135C63.467,52.007,63.69,52.232,63.967,52.232z M64.467,46.097H69.6v5.135h-5.133V46.097z"/>
		<path d="M77.92,45.097h-6.137c-0.273,0-0.5,0.226-0.5,0.5v6.135c0,0.275,0.227,0.5,0.5,0.5h6.137c0.273,0,0.5-0.225,0.5-0.5
			v-6.135C78.42,45.323,78.196,45.097,77.92,45.097z M77.42,51.232h-5.137v-5.135h5.137V51.232z"/>
		<path d="M77.92,55.8H56.053c-0.274,0-0.5,0.225-0.5,0.5c0,0.274,0.226,0.5,0.5,0.5H77.92c0.273,0,0.5-0.226,0.5-0.5
			C78.42,56.025,78.196,55.8,77.92,55.8z"/>
		<path d="M6.486,52.232h6.133c0.275,0,0.5-0.225,0.5-0.5v-6.135c0-0.274-0.225-0.5-0.5-0.5H6.486c-0.275,0-0.5,0.226-0.5,0.5v6.135
			C5.986,52.007,6.209,52.232,6.486,52.232z M6.986,46.097h5.133v5.135H6.986V46.097z"/>
		<path d="M14.398,52.232h6.135c0.275,0,0.5-0.225,0.5-0.5v-6.135c0-0.274-0.225-0.5-0.5-0.5h-6.135c-0.274,0-0.5,0.226-0.5,0.5
			v6.135C13.898,52.007,14.121,52.232,14.398,52.232z M14.898,46.097h5.135v5.135h-5.135V46.097z"/>
		<path d="M22.217,52.232h6.133c0.276,0,0.5-0.225,0.5-0.5v-6.135c0-0.274-0.224-0.5-0.5-0.5h-6.133c-0.275,0-0.5,0.226-0.5,0.5
			v6.135C21.717,52.007,21.942,52.232,22.217,52.232z M22.717,46.097h5.133v5.135h-5.133V46.097z"/>
		<path d="M6.486,56.8h21.865c0.276,0,0.5-0.226,0.5-0.5c0-0.275-0.224-0.5-0.5-0.5H6.486c-0.275,0-0.5,0.225-0.5,0.5
			C5.986,56.575,6.209,56.8,6.486,56.8z"/>
		<path d="M50.561,43.267c-0.274,0-0.5,0.226-0.5,0.5v8.802c0,0.274,0.226,0.5,0.5,0.5c0.277,0,0.5-0.226,0.5-0.5v-8.802
			C51.061,43.491,50.838,43.267,50.561,43.267z"/>
		<path d="M50.561,53.334c-0.274,0-0.5,0.224-0.5,0.5v1.619c0,0.277,0.226,0.5,0.5,0.5c0.277,0,0.5-0.223,0.5-0.5v-1.619
			C51.061,53.558,50.838,53.334,50.561,53.334z"/>
	</g>
</g>
</svg>