<?xml version="1.0" encoding="iso-8859-1"?>
<!-- Uploaded to: SVG Repo, www.svgrepo.com, Generator: SVG Repo Mixer Tools -->
<!DOCTYPE svg PUBLIC "-//W3C//DTD SVG 1.1//EN" "http://www.w3.org/Graphics/SVG/1.1/DTD/svg11.dtd">
<svg fill="#000000" height="800px" width="800px" version="1.1" id="Capa_1" xmlns="http://www.w3.org/2000/svg" xmlns:xlink="http://www.w3.org/1999/xlink" 
	 viewBox="0 0 29.861 29.861" xml:space="preserve">
<path d="M21.024,0c-2.501,0-4.715,1.224-6.094,3.098C13.552,1.224,11.338,0,8.837,0c-2.873,0-5.21,2.337-5.21,5.21
	c0,2.294,1.866,4.161,4.16,4.161c2.041,0,3.703-1.661,3.703-3.703c0-0.814-0.66-1.475-1.475-1.475c-0.813,0-1.475,0.66-1.475,1.475
	c0,0.416-0.339,0.754-0.754,0.754c-0.668,0-1.212-0.544-1.212-1.212c0-1.247,1.015-2.262,2.262-2.262
	c2.547,0,4.619,2.072,4.619,4.618v1.313v5.618h-2.15c-0.814,0-1.475,0.66-1.475,1.474s0.661,1.475,1.475,1.475h2.15v5.109h-2.348
	c-0.266,0-0.509,0.143-0.639,0.373c-0.13,0.231-0.125,0.514,0.013,0.74l3.429,5.62c0.217,0.356,0.603,0.572,1.019,0.572
	c0.417,0,0.803-0.216,1.019-0.572l3.429-5.62c0.138-0.226,0.143-0.509,0.013-0.74c-0.13-0.231-0.373-0.373-0.639-0.373h-2.348
	v-5.109h2.58c0.814,0,1.475-0.66,1.475-1.475s-0.66-1.474-1.475-1.474h-2.58V8.879V7.567c0-2.546,2.072-4.618,4.619-4.618
	c1.247,0,2.261,1.015,2.261,2.262c0,0.668-0.543,1.212-1.211,1.212c-0.416,0-0.755-0.338-0.755-0.754
	c0-0.814-0.66-1.475-1.474-1.475c-0.814,0-1.475,0.66-1.475,1.475c0,2.042,1.661,3.703,3.703,3.703c2.294,0,4.16-1.867,4.16-4.161
	C26.234,2.337,23.897,0,21.024,0z"/>
</svg>